<svg width="96" height="84" viewBox="0 0 96 84" fill="none" xmlns="http://www.w3.org/2000/svg">
<path d="M45.3362 1.41564C46.426 -0.471881 49.1505 -0.471882 50.2403 1.41564L95.193 79.2761C96.2827 81.1636 94.9205 83.523 92.741 83.523H2.83557L2.63373 83.5161C0.573297 83.376 -0.672178 81.1046 0.383537 79.2761L45.3362 1.41564ZM7.73963 77.8604H87.8369L47.7883 8.49387L7.73963 77.8604Z" fill="black"/>
<path d="M45.3362 1.41564C46.426 -0.471881 49.1505 -0.471882 50.2403 1.41564L95.193 79.2761C96.2827 81.1636 94.9205 83.523 92.741 83.523H2.83557L2.63373 83.5161C0.573297 83.376 -0.672178 81.1046 0.383537 79.2761L45.3362 1.41564ZM7.73963 77.8604H87.8369L47.7883 8.49387L7.73963 77.8604Z" fill="black"/>
<path d="M45.073 4.93491C45.8728 2.23032 49.7036 2.23032 50.5034 4.93491L73.3836 82.3115C73.5512 82.8784 73.1633 83.4471 72.5947 83.5161L72.4786 83.523V82.5788L69.2869 83.523H23.0978C22.4673 83.5229 22.014 82.9162 22.1928 82.3115L45.073 4.93491ZM72.4786 83.523H69.2869L72.4786 82.5788V83.523ZM29.4143 77.8604H66.1621L47.7882 15.7223L29.4143 77.8604Z" fill="black"/>
</svg>
