<svg width="104" height="97" viewBox="0 0 104 97" fill="none" xmlns="http://www.w3.org/2000/svg">
<rect width="104" height="97" rx="12" fill="white"/>
<path d="M49.7955 11.3051C50.8002 9.56497 53.312 9.56497 54.3166 11.3051L95.7586 83.0847C96.7632 84.8249 95.5073 87 93.498 87H10.6141L10.428 86.9936C8.52852 86.8645 7.38032 84.7705 8.35358 83.0847L49.7955 11.3051ZM15.1352 81.7797H88.977L52.0561 17.8305L15.1352 81.7797Z" fill="black"/>
<path d="M49.7955 11.3051C50.8002 9.56497 53.312 9.56497 54.3166 11.3051L95.7586 83.0847C96.7632 84.8249 95.5073 87 93.498 87H10.6141L10.428 86.9936C8.52852 86.8645 7.38032 84.7705 8.35358 83.0847L49.7955 11.3051ZM15.1352 81.7797H88.977L52.0561 17.8305L15.1352 81.7797Z" fill="black"/>
<path d="M49.5529 14.5495C50.2902 12.0561 53.8219 12.0561 54.5592 14.5495L75.6525 85.8831C75.8071 86.4057 75.4495 86.93 74.9252 86.9936L74.8181 87V86.1295L71.8758 87H29.294C28.7126 86.9999 28.2948 86.4406 28.4596 85.8831L49.5529 14.5495ZM74.8181 87H71.8758L74.8181 86.1295V87ZM35.1171 81.7796H68.995L52.0561 24.4944L35.1171 81.7796Z" fill="black"/>
</svg>
